<mxfile host="app.diagrams.net" modified="2022-05-22T13:16:38.875Z" agent="5.0 (Windows NT 10.0; Win64; x64) AppleWebKit/537.36 (KHTML, like Gecko) Chrome/100.0.4896.75 Safari/537.36" etag="8xADv5ZnPQfj_v1gfmwK" version="18.0.2" type="github">
  <diagram id="XVO9AAxLQijC5iL2iSVY" name="第 1 页">
    <mxGraphModel dx="1422" dy="738" grid="1" gridSize="10" guides="1" tooltips="1" connect="1" arrows="1" fold="1" page="1" pageScale="1" pageWidth="827" pageHeight="1169" math="0" shadow="0">
      <root>
        <mxCell id="0" />
        <mxCell id="1" parent="0" />
        <mxCell id="MD5_5JTX2Zhy4qjMyFGq-1" style="edgeStyle=orthogonalEdgeStyle;rounded=0;orthogonalLoop=1;jettySize=auto;html=1;entryX=0.5;entryY=0;entryDx=0;entryDy=0;endArrow=none;endFill=0;" edge="1" parent="1" source="rA-lsOS7G83opefxdlpn-1" target="rA-lsOS7G83opefxdlpn-2">
          <mxGeometry relative="1" as="geometry">
            <Array as="points">
              <mxPoint x="429" y="200" />
              <mxPoint x="198" y="200" />
            </Array>
          </mxGeometry>
        </mxCell>
        <mxCell id="MD5_5JTX2Zhy4qjMyFGq-2" style="edgeStyle=orthogonalEdgeStyle;rounded=0;orthogonalLoop=1;jettySize=auto;html=1;entryX=0.5;entryY=0;entryDx=0;entryDy=0;endArrow=none;endFill=0;" edge="1" parent="1" source="rA-lsOS7G83opefxdlpn-1" target="rA-lsOS7G83opefxdlpn-3">
          <mxGeometry relative="1" as="geometry">
            <Array as="points">
              <mxPoint x="429" y="200" />
              <mxPoint x="288" y="200" />
            </Array>
          </mxGeometry>
        </mxCell>
        <mxCell id="MD5_5JTX2Zhy4qjMyFGq-3" style="edgeStyle=orthogonalEdgeStyle;rounded=0;orthogonalLoop=1;jettySize=auto;html=1;endArrow=none;endFill=0;" edge="1" parent="1" source="rA-lsOS7G83opefxdlpn-1" target="rA-lsOS7G83opefxdlpn-4">
          <mxGeometry relative="1" as="geometry" />
        </mxCell>
        <mxCell id="MD5_5JTX2Zhy4qjMyFGq-4" style="edgeStyle=orthogonalEdgeStyle;rounded=0;orthogonalLoop=1;jettySize=auto;html=1;entryX=0.5;entryY=0;entryDx=0;entryDy=0;endArrow=none;endFill=0;" edge="1" parent="1" source="rA-lsOS7G83opefxdlpn-1" target="rA-lsOS7G83opefxdlpn-5">
          <mxGeometry relative="1" as="geometry" />
        </mxCell>
        <mxCell id="MD5_5JTX2Zhy4qjMyFGq-5" style="edgeStyle=orthogonalEdgeStyle;rounded=0;orthogonalLoop=1;jettySize=auto;html=1;endArrow=none;endFill=0;" edge="1" parent="1" source="rA-lsOS7G83opefxdlpn-1" target="rA-lsOS7G83opefxdlpn-6">
          <mxGeometry relative="1" as="geometry">
            <Array as="points">
              <mxPoint x="429" y="200" />
              <mxPoint x="568" y="200" />
            </Array>
          </mxGeometry>
        </mxCell>
        <mxCell id="MD5_5JTX2Zhy4qjMyFGq-6" style="edgeStyle=orthogonalEdgeStyle;rounded=0;orthogonalLoop=1;jettySize=auto;html=1;endArrow=none;endFill=0;" edge="1" parent="1" source="rA-lsOS7G83opefxdlpn-1" target="rA-lsOS7G83opefxdlpn-7">
          <mxGeometry relative="1" as="geometry">
            <Array as="points">
              <mxPoint x="429" y="200" />
              <mxPoint x="657" y="200" />
            </Array>
          </mxGeometry>
        </mxCell>
        <mxCell id="rA-lsOS7G83opefxdlpn-1" value="无纸化学习平台" style="rounded=0;whiteSpace=wrap;html=1;fontSize=16;fontFamily=宋体;" parent="1" vertex="1">
          <mxGeometry x="354" y="140" width="150" height="40" as="geometry" />
        </mxCell>
        <mxCell id="rA-lsOS7G83opefxdlpn-20" style="edgeStyle=orthogonalEdgeStyle;rounded=0;orthogonalLoop=1;jettySize=auto;html=1;fontSize=14;endArrow=none;endFill=0;fontFamily=宋体;" parent="1" source="rA-lsOS7G83opefxdlpn-2" target="rA-lsOS7G83opefxdlpn-18" edge="1">
          <mxGeometry relative="1" as="geometry" />
        </mxCell>
        <mxCell id="rA-lsOS7G83opefxdlpn-21" style="edgeStyle=orthogonalEdgeStyle;rounded=0;orthogonalLoop=1;jettySize=auto;html=1;entryX=0.5;entryY=0;entryDx=0;entryDy=0;fontSize=14;endArrow=none;endFill=0;fontFamily=宋体;" parent="1" source="rA-lsOS7G83opefxdlpn-2" target="rA-lsOS7G83opefxdlpn-19" edge="1">
          <mxGeometry relative="1" as="geometry" />
        </mxCell>
        <mxCell id="rA-lsOS7G83opefxdlpn-2" value="学生信息管理" style="rounded=0;whiteSpace=wrap;html=1;glass=0;sketch=0;horizontal=1;fontSize=16;fontFamily=宋体;" parent="1" vertex="1">
          <mxGeometry x="183" y="220" width="30" height="130" as="geometry" />
        </mxCell>
        <mxCell id="rA-lsOS7G83opefxdlpn-25" style="edgeStyle=orthogonalEdgeStyle;rounded=0;orthogonalLoop=1;jettySize=auto;html=1;fontSize=14;endArrow=none;endFill=0;fontFamily=宋体;" parent="1" source="rA-lsOS7G83opefxdlpn-3" target="rA-lsOS7G83opefxdlpn-22" edge="1">
          <mxGeometry relative="1" as="geometry" />
        </mxCell>
        <mxCell id="rA-lsOS7G83opefxdlpn-26" style="edgeStyle=orthogonalEdgeStyle;rounded=0;orthogonalLoop=1;jettySize=auto;html=1;entryX=0.5;entryY=0;entryDx=0;entryDy=0;fontSize=14;endArrow=none;endFill=0;fontFamily=宋体;" parent="1" source="rA-lsOS7G83opefxdlpn-3" target="rA-lsOS7G83opefxdlpn-23" edge="1">
          <mxGeometry relative="1" as="geometry" />
        </mxCell>
        <mxCell id="rA-lsOS7G83opefxdlpn-27" style="edgeStyle=orthogonalEdgeStyle;rounded=0;orthogonalLoop=1;jettySize=auto;html=1;entryX=0.5;entryY=0;entryDx=0;entryDy=0;fontSize=14;endArrow=none;endFill=0;fontFamily=宋体;" parent="1" source="rA-lsOS7G83opefxdlpn-3" target="rA-lsOS7G83opefxdlpn-24" edge="1">
          <mxGeometry relative="1" as="geometry" />
        </mxCell>
        <mxCell id="rA-lsOS7G83opefxdlpn-3" value="教师信息管理" style="rounded=0;whiteSpace=wrap;html=1;glass=0;sketch=0;horizontal=1;fontSize=16;fontFamily=宋体;" parent="1" vertex="1">
          <mxGeometry x="273" y="220" width="30" height="130" as="geometry" />
        </mxCell>
        <mxCell id="rA-lsOS7G83opefxdlpn-31" style="edgeStyle=orthogonalEdgeStyle;rounded=0;orthogonalLoop=1;jettySize=auto;html=1;entryX=0.5;entryY=0;entryDx=0;entryDy=0;fontSize=14;endArrow=none;endFill=0;fontFamily=宋体;" parent="1" source="rA-lsOS7G83opefxdlpn-4" target="rA-lsOS7G83opefxdlpn-28" edge="1">
          <mxGeometry relative="1" as="geometry" />
        </mxCell>
        <mxCell id="rA-lsOS7G83opefxdlpn-32" style="edgeStyle=orthogonalEdgeStyle;rounded=0;orthogonalLoop=1;jettySize=auto;html=1;fontSize=14;endArrow=none;endFill=0;fontFamily=宋体;" parent="1" source="rA-lsOS7G83opefxdlpn-4" target="rA-lsOS7G83opefxdlpn-29" edge="1">
          <mxGeometry relative="1" as="geometry" />
        </mxCell>
        <mxCell id="rA-lsOS7G83opefxdlpn-33" style="edgeStyle=orthogonalEdgeStyle;rounded=0;orthogonalLoop=1;jettySize=auto;html=1;fontSize=14;endArrow=none;endFill=0;fontFamily=宋体;" parent="1" source="rA-lsOS7G83opefxdlpn-4" target="rA-lsOS7G83opefxdlpn-30" edge="1">
          <mxGeometry relative="1" as="geometry" />
        </mxCell>
        <mxCell id="rA-lsOS7G83opefxdlpn-4" value="课程信息管理" style="rounded=0;whiteSpace=wrap;html=1;glass=0;sketch=0;horizontal=1;fontSize=16;fontFamily=宋体;" parent="1" vertex="1">
          <mxGeometry x="363" y="220" width="30" height="130" as="geometry" />
        </mxCell>
        <mxCell id="rA-lsOS7G83opefxdlpn-39" style="edgeStyle=orthogonalEdgeStyle;rounded=0;orthogonalLoop=1;jettySize=auto;html=1;fontSize=14;endArrow=none;endFill=0;fontFamily=宋体;" parent="1" source="rA-lsOS7G83opefxdlpn-5" target="rA-lsOS7G83opefxdlpn-34" edge="1">
          <mxGeometry relative="1" as="geometry" />
        </mxCell>
        <mxCell id="rA-lsOS7G83opefxdlpn-40" style="edgeStyle=orthogonalEdgeStyle;rounded=0;orthogonalLoop=1;jettySize=auto;html=1;fontSize=14;endArrow=none;endFill=0;fontFamily=宋体;" parent="1" source="rA-lsOS7G83opefxdlpn-5" target="rA-lsOS7G83opefxdlpn-36" edge="1">
          <mxGeometry relative="1" as="geometry" />
        </mxCell>
        <mxCell id="rA-lsOS7G83opefxdlpn-41" style="edgeStyle=orthogonalEdgeStyle;rounded=0;orthogonalLoop=1;jettySize=auto;html=1;entryX=0.5;entryY=0;entryDx=0;entryDy=0;fontSize=14;endArrow=none;endFill=0;fontFamily=宋体;" parent="1" source="rA-lsOS7G83opefxdlpn-5" target="rA-lsOS7G83opefxdlpn-37" edge="1">
          <mxGeometry relative="1" as="geometry" />
        </mxCell>
        <mxCell id="rA-lsOS7G83opefxdlpn-5" value="回答信息管理" style="rounded=0;whiteSpace=wrap;html=1;glass=0;sketch=0;horizontal=1;fontSize=16;fontFamily=宋体;" parent="1" vertex="1">
          <mxGeometry x="457" y="220" width="30" height="130" as="geometry" />
        </mxCell>
        <mxCell id="rA-lsOS7G83opefxdlpn-45" style="edgeStyle=orthogonalEdgeStyle;rounded=0;orthogonalLoop=1;jettySize=auto;html=1;fontSize=14;endArrow=none;endFill=0;fontFamily=宋体;" parent="1" source="rA-lsOS7G83opefxdlpn-6" target="rA-lsOS7G83opefxdlpn-43" edge="1">
          <mxGeometry relative="1" as="geometry" />
        </mxCell>
        <mxCell id="rA-lsOS7G83opefxdlpn-46" style="edgeStyle=orthogonalEdgeStyle;rounded=0;orthogonalLoop=1;jettySize=auto;html=1;entryX=0.5;entryY=0;entryDx=0;entryDy=0;fontSize=14;endArrow=none;endFill=0;fontFamily=宋体;" parent="1" source="rA-lsOS7G83opefxdlpn-6" target="rA-lsOS7G83opefxdlpn-42" edge="1">
          <mxGeometry relative="1" as="geometry" />
        </mxCell>
        <mxCell id="rA-lsOS7G83opefxdlpn-47" style="edgeStyle=orthogonalEdgeStyle;rounded=0;orthogonalLoop=1;jettySize=auto;html=1;entryX=0.5;entryY=0;entryDx=0;entryDy=0;fontSize=14;endArrow=none;endFill=0;fontFamily=宋体;" parent="1" source="rA-lsOS7G83opefxdlpn-6" target="rA-lsOS7G83opefxdlpn-44" edge="1">
          <mxGeometry relative="1" as="geometry" />
        </mxCell>
        <mxCell id="rA-lsOS7G83opefxdlpn-6" value="作业信息管理" style="rounded=0;whiteSpace=wrap;html=1;glass=0;sketch=0;horizontal=1;fontSize=16;fontFamily=宋体;" parent="1" vertex="1">
          <mxGeometry x="553" y="220" width="30" height="130" as="geometry" />
        </mxCell>
        <mxCell id="rA-lsOS7G83opefxdlpn-51" style="edgeStyle=orthogonalEdgeStyle;rounded=0;orthogonalLoop=1;jettySize=auto;html=1;entryX=0.5;entryY=0;entryDx=0;entryDy=0;fontSize=14;endArrow=none;endFill=0;fontFamily=宋体;" parent="1" source="rA-lsOS7G83opefxdlpn-7" target="rA-lsOS7G83opefxdlpn-48" edge="1">
          <mxGeometry relative="1" as="geometry" />
        </mxCell>
        <mxCell id="rA-lsOS7G83opefxdlpn-52" style="edgeStyle=orthogonalEdgeStyle;rounded=0;orthogonalLoop=1;jettySize=auto;html=1;fontSize=14;endArrow=none;endFill=0;fontFamily=宋体;" parent="1" source="rA-lsOS7G83opefxdlpn-7" target="rA-lsOS7G83opefxdlpn-49" edge="1">
          <mxGeometry relative="1" as="geometry" />
        </mxCell>
        <mxCell id="rA-lsOS7G83opefxdlpn-53" style="edgeStyle=orthogonalEdgeStyle;rounded=0;orthogonalLoop=1;jettySize=auto;html=1;fontSize=14;endArrow=none;endFill=0;fontFamily=宋体;" parent="1" source="rA-lsOS7G83opefxdlpn-7" target="rA-lsOS7G83opefxdlpn-50" edge="1">
          <mxGeometry relative="1" as="geometry" />
        </mxCell>
        <mxCell id="rA-lsOS7G83opefxdlpn-7" value="轮播信息管理" style="rounded=0;whiteSpace=wrap;html=1;glass=0;sketch=0;horizontal=1;fontSize=16;fontFamily=宋体;" parent="1" vertex="1">
          <mxGeometry x="642" y="220" width="30" height="130" as="geometry" />
        </mxCell>
        <mxCell id="rA-lsOS7G83opefxdlpn-18" value="学生信息新增" style="rounded=0;whiteSpace=wrap;html=1;glass=0;sketch=0;fontSize=14;fontFamily=宋体;" parent="1" vertex="1">
          <mxGeometry x="170" y="380" width="20" height="130" as="geometry" />
        </mxCell>
        <mxCell id="rA-lsOS7G83opefxdlpn-19" value="学生信息修改" style="rounded=0;whiteSpace=wrap;html=1;glass=0;sketch=0;fontSize=14;fontFamily=宋体;" parent="1" vertex="1">
          <mxGeometry x="210" y="380" width="20" height="130" as="geometry" />
        </mxCell>
        <mxCell id="rA-lsOS7G83opefxdlpn-22" value="教师信息添加" style="rounded=0;whiteSpace=wrap;html=1;glass=0;sketch=0;fontSize=14;fontFamily=宋体;" parent="1" vertex="1">
          <mxGeometry x="253" y="380" width="20" height="130" as="geometry" />
        </mxCell>
        <mxCell id="rA-lsOS7G83opefxdlpn-23" value="教师信息删除" style="rounded=0;whiteSpace=wrap;html=1;glass=0;sketch=0;fontSize=14;fontFamily=宋体;" parent="1" vertex="1">
          <mxGeometry x="278" y="380" width="20" height="130" as="geometry" />
        </mxCell>
        <mxCell id="rA-lsOS7G83opefxdlpn-24" value="教师信息删除" style="rounded=0;whiteSpace=wrap;html=1;glass=0;sketch=0;fontSize=14;fontFamily=宋体;" parent="1" vertex="1">
          <mxGeometry x="303" y="380" width="20" height="130" as="geometry" />
        </mxCell>
        <mxCell id="rA-lsOS7G83opefxdlpn-28" value="课程信息添加" style="rounded=0;whiteSpace=wrap;html=1;glass=0;sketch=0;fontSize=14;fontFamily=宋体;" parent="1" vertex="1">
          <mxGeometry x="343" y="380" width="20" height="130" as="geometry" />
        </mxCell>
        <mxCell id="rA-lsOS7G83opefxdlpn-29" value="课程信息修改" style="rounded=0;whiteSpace=wrap;html=1;glass=0;sketch=0;fontSize=14;fontFamily=宋体;" parent="1" vertex="1">
          <mxGeometry x="368" y="380" width="20" height="130" as="geometry" />
        </mxCell>
        <mxCell id="rA-lsOS7G83opefxdlpn-30" value="课程信息删除" style="rounded=0;whiteSpace=wrap;html=1;glass=0;sketch=0;fontSize=14;fontFamily=宋体;" parent="1" vertex="1">
          <mxGeometry x="393" y="380" width="20" height="130" as="geometry" />
        </mxCell>
        <mxCell id="rA-lsOS7G83opefxdlpn-34" value="回答信息添加" style="rounded=0;whiteSpace=wrap;html=1;glass=0;sketch=0;fontSize=14;fontFamily=宋体;" parent="1" vertex="1">
          <mxGeometry x="437" y="380" width="20" height="130" as="geometry" />
        </mxCell>
        <mxCell id="rA-lsOS7G83opefxdlpn-36" value="回答信息修改" style="rounded=0;whiteSpace=wrap;html=1;glass=0;sketch=0;fontSize=14;fontFamily=宋体;" parent="1" vertex="1">
          <mxGeometry x="462" y="380" width="20" height="130" as="geometry" />
        </mxCell>
        <mxCell id="rA-lsOS7G83opefxdlpn-37" value="回答信息删除" style="rounded=0;whiteSpace=wrap;html=1;glass=0;sketch=0;fontSize=14;fontFamily=宋体;" parent="1" vertex="1">
          <mxGeometry x="487" y="380" width="20" height="130" as="geometry" />
        </mxCell>
        <mxCell id="rA-lsOS7G83opefxdlpn-42" value="作业信息添加" style="rounded=0;whiteSpace=wrap;html=1;glass=0;sketch=0;fontSize=14;fontFamily=宋体;" parent="1" vertex="1">
          <mxGeometry x="533" y="380" width="20" height="130" as="geometry" />
        </mxCell>
        <mxCell id="rA-lsOS7G83opefxdlpn-43" value="作业信息修改" style="rounded=0;whiteSpace=wrap;html=1;glass=0;sketch=0;fontSize=14;fontFamily=宋体;" parent="1" vertex="1">
          <mxGeometry x="558" y="380" width="20" height="130" as="geometry" />
        </mxCell>
        <mxCell id="rA-lsOS7G83opefxdlpn-44" value="作业信息删除" style="rounded=0;whiteSpace=wrap;html=1;glass=0;sketch=0;fontSize=14;fontFamily=宋体;" parent="1" vertex="1">
          <mxGeometry x="583" y="380" width="20" height="130" as="geometry" />
        </mxCell>
        <mxCell id="rA-lsOS7G83opefxdlpn-48" value="轮播信息添加" style="rounded=0;whiteSpace=wrap;html=1;glass=0;sketch=0;fontSize=14;fontFamily=宋体;" parent="1" vertex="1">
          <mxGeometry x="622" y="380" width="20" height="130" as="geometry" />
        </mxCell>
        <mxCell id="rA-lsOS7G83opefxdlpn-49" value="轮播信息修改" style="rounded=0;whiteSpace=wrap;html=1;glass=0;sketch=0;fontSize=14;fontFamily=宋体;" parent="1" vertex="1">
          <mxGeometry x="647" y="380" width="20" height="130" as="geometry" />
        </mxCell>
        <mxCell id="rA-lsOS7G83opefxdlpn-50" value="轮播信息删除" style="rounded=0;whiteSpace=wrap;html=1;glass=0;sketch=0;fontSize=14;fontFamily=宋体;" parent="1" vertex="1">
          <mxGeometry x="672" y="380" width="20" height="130" as="geometry" />
        </mxCell>
      </root>
    </mxGraphModel>
  </diagram>
</mxfile>
